<svg width="41" height="40" viewBox="0 0 41 40" fill="none" xmlns="http://www.w3.org/2000/svg">
<rect opacity="0.1" x="0.19046" width="40" height="40" rx="4" fill="#4388DD"/>
<path d="M15.1905 10.625V14.375C15.1905 14.5408 15.1246 14.6997 15.0074 14.8169C14.8902 14.9342 14.7312 15 14.5655 15H10.8155C10.6497 15 10.4907 14.9342 10.3735 14.8169C10.2563 14.6997 10.1905 14.5408 10.1905 14.375V10.625C10.1905 10.4592 10.2563 10.3003 10.3735 10.1831C10.4907 10.0658 10.6497 10 10.8155 10H14.5655C14.7312 10 14.8902 10.0658 15.0074 10.1831C15.1246 10.3003 15.1905 10.4592 15.1905 10.625ZM22.0655 10H18.3155C18.1497 10 17.9907 10.0658 17.8735 10.1831C17.7563 10.3003 17.6905 10.4592 17.6905 10.625V14.375C17.6905 14.5408 17.7563 14.6997 17.8735 14.8169C17.9907 14.9342 18.1497 15 18.3155 15H22.0655C22.2312 15 22.3902 14.9342 22.5074 14.8169C22.6246 14.6997 22.6905 14.5408 22.6905 14.375V10.625C22.6905 10.4592 22.6246 10.3003 22.5074 10.1831C22.3902 10.0658 22.2312 10 22.0655 10ZM29.5655 10H25.8155C25.7334 10 25.6521 10.0162 25.5763 10.0476C25.5005 10.079 25.4316 10.125 25.3735 10.1831C25.3155 10.2411 25.2694 10.31 25.238 10.3858C25.2066 10.4617 25.1905 10.5429 25.1905 10.625V14.375C25.1905 14.4571 25.2066 14.5383 25.238 14.6142C25.2694 14.69 25.3155 14.7589 25.3735 14.8169C25.4316 14.875 25.5005 14.921 25.5763 14.9524C25.6521 14.9838 25.7334 15 25.8155 15H29.5655C29.7312 15 29.8902 14.9342 30.0074 14.8169C30.1246 14.6997 30.1905 14.5408 30.1905 14.375V10.625C30.1905 10.4592 30.1246 10.3003 30.0074 10.1831C29.8902 10.0658 29.7312 10 29.5655 10ZM14.5655 17.5H10.8155C10.6497 17.5 10.4907 17.5658 10.3735 17.6831C10.2563 17.8003 10.1905 17.9592 10.1905 18.125V21.875C10.1905 22.0408 10.2563 22.1997 10.3735 22.3169C10.4907 22.4342 10.6497 22.5 10.8155 22.5H14.5655C14.7312 22.5 14.8902 22.4342 15.0074 22.3169C15.1246 22.1997 15.1905 22.0408 15.1905 21.875V18.125C15.1905 17.9592 15.1246 17.8003 15.0074 17.6831C14.8902 17.5658 14.7312 17.5 14.5655 17.5ZM22.0655 17.5H18.3155C18.1497 17.5 17.9907 17.5658 17.8735 17.6831C17.7563 17.8003 17.6905 17.9592 17.6905 18.125V21.875C17.6905 22.0408 17.7563 22.1997 17.8735 22.3169C17.9907 22.4342 18.1497 22.5 18.3155 22.5H22.0655C22.2312 22.5 22.3902 22.4342 22.5074 22.3169C22.6246 22.1997 22.6905 22.0408 22.6905 21.875V18.125C22.6905 17.9592 22.6246 17.8003 22.5074 17.6831C22.3902 17.5658 22.2312 17.5 22.0655 17.5ZM29.5655 17.5H25.8155C25.7334 17.5 25.6521 17.5162 25.5763 17.5476C25.5005 17.579 25.4316 17.625 25.3735 17.6831C25.3155 17.7411 25.2694 17.81 25.238 17.8858C25.2066 17.9617 25.1905 18.0429 25.1905 18.125V21.875C25.1905 21.9571 25.2066 22.0383 25.238 22.1142C25.2694 22.19 25.3155 22.2589 25.3735 22.3169C25.4316 22.375 25.5005 22.421 25.5763 22.4524C25.6521 22.4838 25.7334 22.5 25.8155 22.5H29.5655C29.7312 22.5 29.8902 22.4342 30.0074 22.3169C30.1246 22.1997 30.1905 22.0408 30.1905 21.875V18.125C30.1905 17.9592 30.1246 17.8003 30.0074 17.6831C29.8902 17.5658 29.7312 17.5 29.5655 17.5ZM14.5655 25H10.8155C10.7334 25 10.6521 25.0162 10.5763 25.0476C10.5005 25.079 10.4316 25.125 10.3735 25.1831C10.3155 25.2411 10.2694 25.31 10.238 25.3858C10.2066 25.4616 10.1905 25.5429 10.1905 25.625V29.375C10.1905 29.5408 10.2563 29.6997 10.3735 29.8169C10.4907 29.9342 10.6497 30 10.8155 30H14.5655C14.7312 30 14.8902 29.9342 15.0074 29.8169C15.1246 29.6997 15.1905 29.5408 15.1905 29.375V25.625C15.1905 25.5429 15.1743 25.4616 15.1429 25.3858C15.1115 25.31 15.0654 25.2411 15.0074 25.1831C14.9494 25.125 14.8805 25.079 14.8046 25.0476C14.7288 25.0162 14.6475 25 14.5655 25ZM22.0655 25H18.3155C18.2334 25 18.1521 25.0162 18.0763 25.0476C18.0005 25.079 17.9316 25.125 17.8735 25.1831C17.8155 25.2411 17.7694 25.31 17.738 25.3858C17.7066 25.4616 17.6905 25.5429 17.6905 25.625V29.375C17.6905 29.5408 17.7563 29.6997 17.8735 29.8169C17.9907 29.9342 18.1497 30 18.3155 30H22.0655C22.2312 30 22.3902 29.9342 22.5074 29.8169C22.6246 29.6997 22.6905 29.5408 22.6905 29.375V25.625C22.6905 25.5429 22.6743 25.4616 22.6429 25.3858C22.6115 25.31 22.5654 25.2411 22.5074 25.1831C22.4494 25.125 22.3805 25.079 22.3046 25.0476C22.2288 25.0162 22.1475 25 22.0655 25ZM29.5655 25H25.8155C25.7334 25 25.6521 25.0162 25.5763 25.0476C25.5005 25.079 25.4316 25.125 25.3735 25.1831C25.3155 25.2411 25.2694 25.31 25.238 25.3858C25.2066 25.4616 25.1905 25.5429 25.1905 25.625V29.375C25.1905 29.4571 25.2066 29.5383 25.238 29.6142C25.2694 29.69 25.3155 29.7589 25.3735 29.8169C25.4316 29.875 25.5005 29.921 25.5763 29.9524C25.6521 29.9838 25.7334 30 25.8155 30H29.5655C29.7312 30 29.8902 29.9342 30.0074 29.8169C30.1246 29.6997 30.1905 29.5408 30.1905 29.375V25.625C30.1905 25.5429 30.1743 25.4616 30.1429 25.3858C30.1115 25.31 30.0654 25.2411 30.0074 25.1831C29.9494 25.125 29.8805 25.079 29.8046 25.0476C29.7288 25.0162 29.6475 25 29.5655 25Z" fill="#4388DD"/>
</svg>
