<svg width="20" height="20" viewBox="0 0 20 20" fill="none" xmlns="http://www.w3.org/2000/svg">
<path d="M15.0219 7.31304C14.4704 7.95143 13.5274 8.00298 12.915 7.42822C12.3031 6.85288 12.2537 5.86911 12.8046 5.23018C13.3561 4.5918 14.299 4.54024 14.9115 5.115C15.5234 5.69035 15.5728 6.67411 15.0219 7.31304ZM6.58392 13.8062L4.72877 15.9558C4.56969 16.1244 4.50307 16.3626 4.55547 16.5755C4.60786 16.7885 4.77074 16.9415 4.9792 16.9736C5.18766 17.0057 5.40781 16.9117 5.55191 16.729L7.40706 14.5795C7.51907 14.452 7.5819 14.2873 7.58132 14.1227C7.58073 13.9581 7.51676 13.8075 7.40393 13.7051C7.1736 13.4973 6.80751 13.5424 6.58392 13.8062ZM7.1449 17.6746L6.02184 18.9758C5.86269 19.1444 5.79602 19.3827 5.8484 19.5957C5.90078 19.8087 6.0637 19.9617 6.27221 19.9938C6.48071 20.0259 6.70089 19.9318 6.84497 19.7491L7.96802 18.4478C8.08108 18.3205 8.14481 18.1553 8.14466 17.9901C8.14452 17.8248 8.08051 17.6735 7.96726 17.5708C7.736 17.362 7.36809 17.4085 7.1449 17.6746ZM2.69219 14.0419C2.53748 14.061 2.39005 14.1437 2.28245 14.2719L0.190895 16.6954C0.0318183 16.864 -0.0347996 17.1022 0.0175929 17.3151C0.0699853 17.5281 0.232871 17.6811 0.441332 17.7132C0.649792 17.7453 0.86994 17.6513 1.01403 17.4686L3.10558 15.0452C3.21817 14.9183 3.28181 14.7539 3.28207 14.5892C3.28234 14.4245 3.21921 14.2735 3.107 14.1704C2.99615 14.0691 2.8469 14.0229 2.69219 14.0419ZM3.14766 17.7877C3.37125 17.5239 3.73734 17.4788 3.96767 17.6866C4.0805 17.789 4.14447 17.9396 4.14506 18.1042C4.14564 18.2688 4.08281 18.4335 3.9708 18.561L3.57144 19.0237C3.42735 19.2064 3.2072 19.3004 2.99874 19.2683C2.79028 19.2362 2.62739 19.0832 2.575 18.8702C2.52261 18.6573 2.58923 18.4191 2.7483 18.2505L3.14766 17.7877ZM10.4581 3.79796C11.879 2.15667 14.5296 0.914513 18.4181 0.0199174C18.5056 -0.000198863 18.5956 -0.00512093 18.6846 0.00534967C19.1311 0.057903 19.4523 0.478205 19.402 0.944099C18.9556 5.07221 18.0486 7.95213 16.6297 9.60116C16.2465 10.038 15.8322 10.4436 15.3903 10.8144C15.6883 11.7756 15.476 13.0213 14.9706 14.056C14.547 14.9235 13.1974 16.1062 10.8527 17.7287C10.7333 17.8113 10.5933 17.8553 10.45 17.8553C10.0479 17.8552 9.72192 17.5151 9.72198 17.0955C9.72224 15.9771 9.72228 15.1265 9.72219 14.5437C9.00812 14.2972 8.34841 13.899 7.78494 13.3714C7.22123 12.8409 6.77093 12.1952 6.46077 11.4765C5.90097 11.5259 5.07405 11.5877 3.97667 11.6621C3.81338 11.6732 3.65068 11.6327 3.5098 11.5459C3.12281 11.3073 2.99446 10.7866 3.22313 10.3829C4.6069 7.94001 5.62664 6.50007 6.3821 5.98824C7.31256 5.35786 8.47367 5.0059 9.41927 5.20889C9.73046 4.71189 10.0777 4.24019 10.4581 3.79796ZM10.2505 6.35308L9.94059 6.90266L9.39902 6.60711C8.89713 6.33321 7.86409 6.58248 7.08186 7.11242C6.62255 7.42361 5.83737 8.49016 4.79297 10.262C5.76314 10.1927 6.43799 10.1373 6.81366 10.0963L7.32278 10.0407L7.48839 10.546C7.71869 11.2488 8.11695 11.8786 8.64432 12.375C9.17338 12.8703 9.81463 13.217 10.5076 13.3822L11.0067 13.5012L11.0069 14.0353C11.0071 14.4287 11.0071 15.0834 11.007 15.9995C12.6284 14.8225 13.5825 13.9457 13.8258 13.4475C14.2507 12.5775 14.3775 11.4761 14.0587 10.9865L13.7096 10.4502L14.2117 10.0683C14.7444 9.66318 15.2369 9.20353 15.6777 8.70099C16.8021 7.39413 17.604 4.9853 18.0445 1.48489C14.7544 2.30762 12.5421 3.39114 11.4137 4.69402C10.974 5.20528 10.5843 5.76106 10.2505 6.35308Z" fill="url(#paint0_linear_11876_15472)"/>
<defs>
<linearGradient id="paint0_linear_11876_15472" x1="1.26225" y1="5.83333" x2="17.4241" y2="7.55462" gradientUnits="userSpaceOnUse">
<stop offset="0.0666667" stop-color="#4388DD"/>
<stop offset="0.976169" stop-color="#FF4581"/>
</linearGradient>
</defs>
</svg>
