<svg id="Layer_1" data-name="Layer 1" xmlns="http://www.w3.org/2000/svg" xmlns:xlink="http://www.w3.org/1999/xlink" viewBox="0 0 407 120"><defs><style>.cls-1{fill:#414042;}.cls-2{fill:url(#linear-gradient);}.cls-3{fill:url(#linear-gradient-2);}.cls-4{fill:url(#linear-gradient-3);}.cls-5{fill:url(#linear-gradient-4);}.cls-6{fill:url(#linear-gradient-5);}.cls-7{fill:url(#linear-gradient-6);}.cls-8{fill:url(#linear-gradient-7);}.cls-9{fill:url(#linear-gradient-8);}</style><linearGradient id="linear-gradient" x1="305.114" y1="106.411" x2="158.097" y2="82.609" gradientUnits="userSpaceOnUse"><stop offset="0" stop-color="#ff4c3b"/><stop offset="0.999" stop-color="#e40c5b"/></linearGradient><linearGradient id="linear-gradient-2" x1="304.807" y1="108.307" x2="157.79" y2="84.505" xlink:href="#linear-gradient"/><linearGradient id="linear-gradient-3" x1="304.551" y1="109.885" x2="157.535" y2="86.082" xlink:href="#linear-gradient"/><linearGradient id="linear-gradient-4" x1="307.518" y1="91.558" x2="160.502" y2="67.756" xlink:href="#linear-gradient"/><linearGradient id="linear-gradient-5" x1="306.765" y1="96.212" x2="159.749" y2="72.409" xlink:href="#linear-gradient"/><linearGradient id="linear-gradient-6" x1="307.459" y1="91.923" x2="160.443" y2="68.121" xlink:href="#linear-gradient"/><linearGradient id="linear-gradient-7" x1="-765.25" y1="993.586" x2="-764.762" y2="993.365" gradientTransform="matrix(133.677, 0, 0, -133.677, 102332.86, 132876.216)" xlink:href="#linear-gradient"/><linearGradient id="linear-gradient-8" x1="-765.439" y1="993.716" x2="-764.614" y2="993.38" gradientTransform="matrix(133.677, 0, 0, -133.677, 102332.86, 132876.216)" gradientUnits="userSpaceOnUse"><stop offset="0.073" stop-color="#ff4c3b"/><stop offset="0.999" stop-color="#e40c5b"/></linearGradient></defs><path class="cls-1" d="M169.7,23.214,165,25.861a14.269,14.269,0,0,0-2.353-2.941,5.276,5.276,0,0,0-3.235-.883,5.592,5.592,0,0,0-3.823,1.471,3.745,3.745,0,0,0-1.471,3.235c0,1.765,1.471,3.235,4.118,4.412l3.823,1.47a13.307,13.307,0,0,1,6.765,4.706,10.314,10.314,0,0,1,2.058,6.764,12.061,12.061,0,0,1-12.352,12.353,11.341,11.341,0,0,1-8.235-2.941,12.767,12.767,0,0,1-3.824-8.235l5.882-1.177c.295,2.353.589,3.824,1.471,4.706,1.176,1.765,2.941,2.353,5.294,2.353a5.985,5.985,0,0,0,4.412-1.765,6.209,6.209,0,0,0,1.764-4.705A4.362,4.362,0,0,0,165,42.625l-.882-1.765c-.294-.588-.882-.882-1.765-1.47A5.909,5.909,0,0,0,160,38.213l-3.529-1.47q-7.941-3.089-7.941-9.706a8.949,8.949,0,0,1,3.235-7.058A11.343,11.343,0,0,1,160,17.037Q165.731,16.6,169.7,23.214Z"/><path class="cls-1" d="M185.877,31.449V45.272c0,4.117,1.471,5.882,4.706,5.882s4.706-2.059,4.706-5.882V31.449h5.588V45.272a23.267,23.267,0,0,1-.589,5,8.341,8.341,0,0,1-2.352,3.235c-1.765,1.765-4.118,2.353-7.059,2.353a10.731,10.731,0,0,1-7.059-2.353,6.175,6.175,0,0,1-2.353-3.235c-.588-1.177-.588-2.647-.588-5V31.449Z"/><path class="cls-1" d="M217.052,13.8V34.1c2.353-2.353,4.706-3.53,7.647-3.53a10.071,10.071,0,0,1,7.941,3.53,13.248,13.248,0,0,1,3.235,9.117,13.249,13.249,0,0,1-3.235,9.118,10.683,10.683,0,0,1-8.235,3.529,10.535,10.535,0,0,1-7.353-3.235v2.941h-5.588V13.8Zm13.235,29.705a8.482,8.482,0,0,0-1.764-5.588,6.143,6.143,0,0,0-4.706-2.353,6.061,6.061,0,0,0-5,2.059,8.483,8.483,0,0,0-1.765,5.588,8.481,8.481,0,0,0,1.765,5.588,6.058,6.058,0,0,0,5,2.059,5.484,5.484,0,0,0,4.706-2.059A7.191,7.191,0,0,0,230.287,43.507Z"/><path class="cls-1" d="M285.286,56.154h-7.353l-2.941-2.941A19.2,19.2,0,0,1,264.4,56.154a21.381,21.381,0,0,1-13.529-5,18.943,18.943,0,0,1-6.47-14.411,19.133,19.133,0,0,1,6.176-14.412A18.86,18.86,0,0,1,264.4,16.743a19.854,19.854,0,0,1,12.941,5c4.706,3.824,6.764,9.118,6.764,15.294a18.024,18.024,0,0,1-5.588,13.235ZM269.7,40.272l5.588,5.588a13.357,13.357,0,0,0,3.529-9.411A14.194,14.194,0,0,0,274.7,26.155a14.007,14.007,0,0,0-10-4.118,13.52,13.52,0,0,0-10,4.118c-2.647,2.647-3.823,6.176-3.823,10.294a13.521,13.521,0,0,0,4.117,10,14.383,14.383,0,0,0,9.706,4.118,13.659,13.659,0,0,0,6.765-1.765l-8.824-8.823H269.7Z"/><path class="cls-1" d="M299.991,31.449V45.272c0,4.117,1.471,5.882,4.706,5.882S309.4,49.1,309.4,45.272V31.449h5.588V45.272a23.337,23.337,0,0,1-.588,5,8.354,8.354,0,0,1-2.353,3.235c-1.765,1.765-4.118,2.353-7.059,2.353a10.727,10.727,0,0,1-7.058-2.353,6.164,6.164,0,0,1-2.353-3.235c-.589-1.177-.589-2.647-.589-5V31.449Z"/><path class="cls-1" d="M347.637,44.684H330.579a7.75,7.75,0,0,0,2.059,4.705,5.983,5.983,0,0,0,4.411,1.765,6.277,6.277,0,0,0,3.53-.882,13.039,13.039,0,0,0,2.941-3.53l4.705,2.647a13.043,13.043,0,0,1-2.353,3.236,16.157,16.157,0,0,1-2.646,2.058,12.263,12.263,0,0,1-2.942,1.177,14.318,14.318,0,0,1-3.529.294,10.879,10.879,0,0,1-8.529-3.529,13.249,13.249,0,0,1-3.235-9.118,13.248,13.248,0,0,1,3.235-9.117,10.879,10.879,0,0,1,8.529-3.529c3.529,0,6.471,1.176,8.235,3.235,2.059,2.353,2.941,5.294,2.941,9.411Zm-5.588-4.412c-.882-2.941-2.647-4.412-5.588-4.412a3.724,3.724,0,0,0-1.765.3,6.427,6.427,0,0,0-1.47.882,2.937,2.937,0,0,0-1.177,1.47l-.882,1.765Z"/><path class="cls-1" d="M357.637,31.449h5.588v2.059a7.144,7.144,0,0,1,2.647-2.059,8.7,8.7,0,0,1,2.941-.588,10.817,10.817,0,0,1,4.706,1.47l-2.647,5a4.757,4.757,0,0,0-2.941-1.176c-2.942,0-4.412,2.352-4.412,6.764V55.566h-5.588V31.449Z"/><path class="cls-1" d="M389.989,50.86,379.107,31.449h6.47l7.353,13.823,6.764-13.823h6.177L386.754,68.507h-6.471Z"/><path class="cls-2" d="M154.476,79.732l14.931-14.438h7.726L159.792,81.677l17.441,19.8h-7.752l-13.813-16.1-1.192,1.125v14.977h-5.789V65.294h5.789Z"/><path class="cls-3" d="M203.584,91.31H186.243a6.733,6.733,0,0,0,1.938,4.476,6.1,6.1,0,0,0,4.4,1.641,5.969,5.969,0,0,0,3.453-.937,13.594,13.594,0,0,0,3.057-3.469l4.72,2.484a17.941,17.941,0,0,1-2.31,3.012,12.17,12.17,0,0,1-2.61,2.062,10.8,10.8,0,0,1-3.006,1.184,15.471,15.471,0,0,1-3.5.375,11.752,11.752,0,0,1-8.7-3.281,11.9,11.9,0,0,1-3.28-8.766,12.206,12.206,0,0,1,3.181-8.765,12.645,12.645,0,0,1,16.944-.094q3.079,3.188,3.08,8.836ZM197.845,87a5.3,5.3,0,0,0-5.64-4.218,6.081,6.081,0,0,0-1.912.293,5.561,5.561,0,0,0-1.628.843,5.453,5.453,0,0,0-1.254,1.325,5.959,5.959,0,0,0-.8,1.757Z"/><path class="cls-4" d="M217.065,113.9h-5.59V78.654h5.59v2.484a11.041,11.041,0,0,1,15.727.352,12.107,12.107,0,0,1,3.279,8.7,11.926,11.926,0,0,1-3.255,8.555,11.036,11.036,0,0,1-15.751.187Zm13.292-23.7a7.6,7.6,0,0,0-1.889-5.343,6.257,6.257,0,0,0-4.819-2.086,6.569,6.569,0,0,0-4.993,2.015,7.376,7.376,0,0,0-1.913,5.3,7.531,7.531,0,0,0,1.913,5.3,6.452,6.452,0,0,0,4.969,2.039,6.219,6.219,0,0,0,4.795-2.062A7.242,7.242,0,0,0,230.357,90.208Z"/><path class="cls-5" d="M249.354,61.9v39.587h-5.59V61.9Z"/><path class="cls-6" d="M280.253,91.31H262.912a6.732,6.732,0,0,0,1.937,4.476,6.1,6.1,0,0,0,4.4,1.641,5.971,5.971,0,0,0,3.453-.937,13.575,13.575,0,0,0,3.055-3.469l4.721,2.484a17.836,17.836,0,0,1-2.31,3.012,12.165,12.165,0,0,1-2.609,2.062,10.8,10.8,0,0,1-3.007,1.184,15.467,15.467,0,0,1-3.5.375,11.753,11.753,0,0,1-8.7-3.281,11.9,11.9,0,0,1-3.279-8.766,12.2,12.2,0,0,1,3.181-8.765,12.644,12.644,0,0,1,16.943-.094q3.079,3.188,3.08,8.836ZM274.513,87a5.3,5.3,0,0,0-5.639-4.218,6.088,6.088,0,0,0-1.913.293,5.568,5.568,0,0,0-1.627.843,5.457,5.457,0,0,0-1.255,1.325,5.957,5.957,0,0,0-.8,1.757Z"/><path class="cls-7" d="M288.144,78.654h5.59v2.039a10.589,10.589,0,0,1,2.733-2.086,6.579,6.579,0,0,1,2.882-.586,9.42,9.42,0,0,1,4.621,1.359l-2.559,4.828a5.543,5.543,0,0,0-3.106-1.078q-4.571,0-4.571,6.516v11.836h-5.59Z"/><path class="cls-8" d="M78.485,73.425a4.522,4.522,0,0,1-2.334,2.335,3.181,3.181,0,0,1-1.459.291h-46.4A37.642,37.642,0,0,0,99.2,67.005a42.43,42.43,0,0,0,0-14.882H60.976L77.318,68.464a6.4,6.4,0,0,1,.876,1.459,3.183,3.183,0,0,1,.291,1.459A4.339,4.339,0,0,1,78.485,73.425Z"/><path class="cls-9" d="M108.25,52.415A61.558,61.558,0,0,1,108.834,60,46.482,46.482,0,0,1,17.788,73.133c0-.291,0-.291-.292-.583A45.8,45.8,0,0,1,17.788,46,47.908,47.908,0,0,1,58.35,13.6,46.748,46.748,0,0,1,95.411,27.319a4.463,4.463,0,0,1-3.21,7.587,4.686,4.686,0,0,1-3.21-1.459A37.555,37.555,0,0,0,58.934,22.358,38.106,38.106,0,0,0,25.375,52.706a42.483,42.483,0,0,0,0,14.883H63.6L47.261,51.247a6.375,6.375,0,0,1-.875-1.459,3.169,3.169,0,0,1-.292-1.459,2.185,2.185,0,0,1,.292-1.459c.583-1.167,1.167-2.043,2.334-2.334a3.173,3.173,0,0,1,1.459-.292h69.453A59.209,59.209,0,0,0,61.852.472C30.628.763,4.656,25.859,2.906,56.792A59.572,59.572,0,1,0,121.965,60a66.33,66.33,0,0,0-.583-7.587Z"/></svg>