<svg width="339" height="100" viewBox="0 0 339 100" fill="none" xmlns="http://www.w3.org/2000/svg">
<path fill-rule="evenodd" clip-rule="evenodd" d="M88.978 50.0014C88.978 47.7956 88.7331 45.5898 88.4882 43.6291H99.5101C99.5326 43.8313 99.555 44.0314 99.5773 44.2299C99.7979 46.1964 100 47.9978 100 50.0014C100 77.6967 77.7111 100 50.0337 100C21.3765 100 -1.40228 76.2262 0.0673201 47.3054C1.53692 21.3258 23.336 0.247968 49.5438 0.00287673C72.5675 -0.242214 92.1621 15.1985 98.0405 36.7665H86.5287H78.4459H39.7465C39.5015 36.7665 39.0117 36.7665 38.5218 37.0116C37.5421 37.2567 37.0522 37.992 36.5623 38.9723C36.3174 39.2174 36.3174 39.7076 36.3174 40.1978C36.3174 40.4429 36.3174 40.9331 36.5623 41.4233C36.8073 41.9134 37.0522 42.4036 37.2971 42.6487L51.0134 56.3738H18.9272C18.1924 52.4523 18.1924 48.2858 18.9272 43.8742C21.6214 30.1491 33.3782 19.6102 47.0945 18.3847C57.1367 17.6494 66.1992 21.3258 72.3226 27.6982C73.0574 28.4334 74.0371 28.9236 75.0168 28.9236C78.4459 28.9236 79.9155 25.0022 77.7111 22.5512C69.8732 14.7083 58.8513 10.0516 46.6046 11.032C30.9289 12.5025 17.7025 23.2865 12.5589 38.2371C10.1096 46.08 10.3545 53.6778 12.314 60.5404C12.4548 60.6813 12.5147 60.7412 12.5401 60.8132C12.5589 60.8665 12.5589 60.9264 12.5589 61.0305C17.4576 77.2065 32.3985 88.9709 50.0337 88.9709C71.5878 88.9709 88.978 71.5694 88.978 50.0014ZM61.5455 63.2363C62.2803 62.9913 63.0151 62.256 63.505 61.2756C63.505 61.2143 63.5203 61.1378 63.5394 61.042C63.5968 60.7548 63.6887 60.2953 63.505 59.56C63.505 59.3149 63.505 58.8247 63.26 58.3345C63.0151 57.8443 62.7702 57.3542 62.5252 57.1091L48.809 43.384H80.8952C81.63 47.3054 81.63 51.472 80.8952 55.8836C78.201 69.8538 66.1992 80.3927 52.2381 81.3731C38.7667 82.3534 26.765 74.7556 21.3765 63.4814H60.3208C60.5658 63.4814 61.0556 63.4814 61.5455 63.2363Z" fill="url(#paint0_radial_509_6564)"/>
<path d="M141.73 36.7665L137.809 38.9724C137.073 37.7469 136.338 37.0116 135.848 36.5214C135.113 36.0313 134.377 35.7862 133.152 35.7862C131.926 35.7862 130.701 36.2764 129.966 37.0116C128.985 37.7469 128.74 38.7273 128.74 39.7076C128.74 41.1782 129.966 42.4036 132.171 43.384L135.358 44.6094C138.054 45.5898 139.769 46.8153 140.995 48.5309C142.22 50.0014 142.71 51.9622 142.71 54.168C142.71 57.1091 141.73 59.56 139.769 61.5207C137.809 63.4814 135.358 64.4618 132.417 64.4618C129.721 64.4618 127.27 63.7265 125.554 62.0109C123.838 60.2953 122.613 58.0894 122.368 55.1484L127.27 54.168C127.515 56.1287 127.76 57.3542 128.495 58.0894C129.475 59.56 130.946 60.0502 132.907 60.0502C134.377 60.0502 135.603 59.56 136.583 58.5796C137.563 57.5993 138.054 56.3738 138.054 54.6582C138.054 53.9229 138.054 53.4327 137.809 52.9425C137.563 52.4524 137.318 51.9622 137.073 51.472C136.828 50.9818 136.338 50.7367 135.603 50.2465C135.113 49.7564 134.377 49.5113 133.642 49.2662L130.701 48.0407C126.289 46.3251 124.083 43.6291 124.083 39.9527C124.083 37.5018 125.064 35.5411 126.779 34.0705C128.495 32.3549 130.946 31.6196 133.642 31.6196C136.828 31.3745 139.524 33.0902 141.73 36.7665Z" fill="white"/>
<path d="M155.21 43.6291V55.1484C155.21 58.5796 156.435 60.0502 159.131 60.0502C161.827 60.0502 163.053 58.3345 163.053 55.1484V43.6291H167.71V55.1484C167.71 56.864 167.465 58.0895 167.219 59.3149C166.729 60.2953 166.239 61.2756 165.259 62.0109C163.788 63.4815 161.827 63.9716 159.377 63.9716C156.926 63.9716 154.965 63.2364 153.494 62.0109C152.514 61.2756 151.779 60.2953 151.534 59.3149C151.043 58.3345 151.043 57.1091 151.043 55.1484V43.6291H155.21Z" fill="white"/>
<path d="M181.19 28.9236V45.8349C183.15 43.8742 185.111 42.8938 187.562 42.8938C190.258 42.8938 192.464 43.8742 194.179 45.8349C195.895 47.7956 196.875 50.2465 196.875 53.4327C196.875 56.6189 195.895 59.0698 194.179 61.0305C192.464 62.9913 190.013 63.9716 187.317 63.9716C185.111 63.9716 182.905 62.9913 181.19 61.2756V63.7265H176.533V28.9236H181.19ZM192.219 53.6778C192.219 51.7171 191.729 50.2465 190.748 49.0211C189.768 47.7956 188.297 47.0604 186.827 47.0604C185.111 47.0604 183.641 47.5505 182.66 48.776C181.68 50.0014 181.19 51.472 181.19 53.4327C181.19 55.3934 181.68 56.864 182.66 58.0895C183.641 59.3149 185.111 59.8051 186.827 59.8051C188.542 59.8051 189.768 59.3149 190.748 58.0895C191.729 57.1091 192.219 55.6385 192.219 53.6778Z" fill="white"/>
<path d="M238.051 64.2167H231.923L229.473 61.7658C226.777 63.4815 223.835 64.2167 220.649 64.2167C216.483 64.2167 212.806 62.7462 209.375 60.0502C205.944 56.864 203.983 52.9425 203.983 48.0407C203.983 43.384 205.699 39.2174 209.13 36.0313C212.316 32.8451 216.238 31.3745 220.649 31.3745C224.571 31.3745 228.247 32.8451 231.433 35.5411C235.355 38.7273 237.07 43.1389 237.07 48.2858C237.07 52.4524 235.6 56.1287 232.414 59.3149L238.051 64.2167ZM225.061 50.9818L229.718 55.6385C231.678 53.4327 232.659 50.9818 232.659 47.7956C232.659 44.3644 231.433 41.4233 229.227 39.2174C227.022 37.0116 224.08 35.7862 220.894 35.7862C217.463 35.7862 214.767 37.0116 212.561 39.2174C210.355 41.4233 209.375 44.3644 209.375 47.7956C209.375 51.2269 210.601 53.9229 212.806 56.1287C215.257 58.3345 217.953 59.56 220.894 59.56C222.855 59.56 224.816 59.0698 226.531 58.0895L219.179 50.7367H225.061V50.9818Z" fill="white"/>
<path d="M250.305 43.6291V55.1484C250.305 58.5796 251.531 60.0502 254.227 60.0502C256.923 60.0502 258.148 58.3345 258.148 55.1484V43.6291H262.805V55.1484C262.805 56.864 262.56 58.0895 262.315 59.3149C261.825 60.2953 261.334 61.2756 260.354 62.0109C258.883 63.4815 256.923 63.9716 254.472 63.9716C252.021 63.9716 250.06 63.2364 248.59 62.0109C247.609 61.2756 246.874 60.2953 246.629 59.3149C246.139 58.3345 246.139 57.1091 246.139 55.1484V43.6291H250.305Z" fill="white"/>
<path d="M290.01 54.6582H275.795C276.04 56.3738 276.53 57.5993 277.51 58.5796C278.491 59.56 279.716 60.0502 281.187 60.0502C282.412 60.0502 283.393 59.8051 284.128 59.3149C284.863 58.8247 285.598 57.8444 286.579 56.3738L290.5 58.5796C290.01 59.56 289.275 60.5404 288.54 61.2756C287.804 62.0109 287.069 62.5011 286.334 62.9913C285.598 63.4815 284.618 63.7265 283.883 63.9716C282.902 64.2167 281.922 64.2167 280.942 64.2167C278.001 64.2167 275.55 63.2364 273.834 61.2756C272.118 59.3149 271.138 56.864 271.138 53.6778C271.138 50.4916 272.118 48.0407 273.834 46.08C275.55 44.1193 278.001 43.1389 280.942 43.1389C283.883 43.1389 286.334 44.1193 287.804 45.8349C289.52 47.7956 290.255 50.2465 290.255 53.6778L290.01 54.6582ZM285.353 50.9818C284.618 48.5309 283.148 47.3055 280.697 47.3055C280.206 47.3055 279.716 47.3055 279.226 47.5505C278.736 47.7956 278.246 48.0407 278.001 48.2858C277.51 48.5309 277.265 49.0211 277.02 49.5113C276.775 50.0015 276.53 50.4916 276.285 50.9818H285.353Z" fill="white"/>
<path d="M298.343 43.6291H303V45.3447C303.735 44.3644 304.715 43.8742 305.206 43.6291C305.941 43.384 306.676 43.1389 307.657 43.1389C308.882 43.1389 310.107 43.6291 311.578 44.3644L309.372 48.5309C308.392 47.7956 307.657 47.5505 306.921 47.5505C304.47 47.5505 303.245 49.5113 303.245 53.1876V63.7266H298.588V43.6291H298.343Z" fill="white"/>
<path d="M325.303 59.8051L316.235 43.6291H321.627L327.754 55.1484L333.391 43.6291H338.538L322.607 74.5106H317.215L325.303 59.8051Z" fill="white"/>
<defs>
<radialGradient id="paint0_radial_509_6564" cx="0" cy="0" r="1" gradientUnits="userSpaceOnUse" gradientTransform="translate(8.13168 -0.613281) scale(111.326 111.398)">
<stop offset="0.475" stop-color="#4388DD"/>
<stop offset="0.9988" stop-color="#FF4581"/>
</radialGradient>
</defs>
</svg>
