<svg width="52" height="44" viewBox="0 0 52 44" fill="none" xmlns="http://www.w3.org/2000/svg">
<circle cx="37.4168" cy="27" r="14.5833" fill="#EBEFFF"/>
<path d="M7.10204 19.0068H3.5C2.67157 19.0068 2 19.6784 2 20.5068V40.466C2 41.2944 2.67157 41.966 3.5 41.966H42.1667C42.9951 41.966 43.6667 41.2944 43.6667 40.466V20.5068C43.6667 19.6784 42.9951 19.0068 42.1667 19.0068H37.7143M7.10204 19.0068V12.0034C7.10204 11.175 7.77361 10.5034 8.60204 10.5034H11.3537M7.10204 19.0068H37.7143M37.7143 19.0068V12.0034C37.7143 11.175 37.0427 10.5034 36.2143 10.5034H34.3129M34.3129 10.5034V3.5C34.3129 2.67157 33.6414 2 32.8129 2H12.8537C12.0253 2 11.3537 2.67157 11.3537 3.5V10.5034M34.3129 10.5034H11.3537" stroke="#4388DD" stroke-width="3"/>
</svg>
