<svg xmlns="http://www.w3.org/2000/svg" width="96" height="74" viewBox="0 0 96 74" fill="none">
  <circle cx="70.7296" cy="48.214" r="25.214" fill="#4388DD" fill-opacity="0.15"/>
  <path d="M78.6948 0H1.88543C1.40041 0 0.935247 0.192403 0.592282 0.534882C0.249316 0.877361 0.0566406 1.34186 0.0566406 1.8262V56.6122C0.0566406 57.0965 0.249316 57.561 0.592282 57.9035C0.935247 58.246 1.40041 58.4384 1.88543 58.4384H78.6948C79.1798 58.4384 79.645 58.246 79.9879 57.9035C80.3309 57.561 80.5236 57.0965 80.5236 56.6122V1.8262C80.5236 1.34186 80.3309 0.877361 79.9879 0.534882C79.645 0.192403 79.1798 0 78.6948 0ZM18.3446 5.4786C18.7063 5.4786 19.0599 5.5857 19.3606 5.78637C19.6613 5.98703 19.8957 6.27225 20.0342 6.60594C20.1726 6.93964 20.2088 7.30682 20.1382 7.66107C20.0677 8.01532 19.8935 8.34072 19.6377 8.59612C19.382 8.85152 19.0561 9.02544 18.7014 9.09591C18.3466 9.16637 17.9789 9.13021 17.6447 8.99199C17.3106 8.85377 17.0249 8.6197 16.824 8.31938C16.623 8.01906 16.5158 7.66599 16.5158 7.3048C16.5158 6.82046 16.7085 6.35596 17.0514 6.01348C17.3944 5.671 17.8596 5.4786 18.3446 5.4786ZM12.8582 5.4786C13.2199 5.4786 13.5735 5.5857 13.8742 5.78637C14.175 5.98703 14.4094 6.27225 14.5478 6.60594C14.6862 6.93964 14.7224 7.30682 14.6519 7.66107C14.5813 8.01532 14.4071 8.34072 14.1513 8.59612C13.8956 8.85152 13.5697 9.02544 13.215 9.09591C12.8602 9.16637 12.4925 9.13021 12.1583 8.99199C11.8242 8.85377 11.5386 8.6197 11.3376 8.31938C11.1367 8.01906 11.0294 7.66599 11.0294 7.3048C11.0294 6.82046 11.2221 6.35596 11.565 6.01348C11.908 5.671 12.3732 5.4786 12.8582 5.4786ZM7.37182 5.4786C7.73352 5.4786 8.0871 5.5857 8.38784 5.78637C8.68858 5.98703 8.92298 6.27225 9.0614 6.60594C9.19982 6.93964 9.23603 7.30682 9.16547 7.66107C9.09491 8.01532 8.92073 8.34072 8.66497 8.59612C8.40921 8.85152 8.08335 9.02544 7.7286 9.09591C7.37384 9.16637 7.00614 9.13021 6.67197 8.99199C6.3378 8.85377 6.05218 8.6197 5.85123 8.31938C5.65028 8.01906 5.54302 7.66599 5.54302 7.3048C5.54302 6.82046 5.7357 6.35596 6.07866 6.01348C6.42163 5.671 6.88679 5.4786 7.37182 5.4786ZM3.71423 54.786V36.524H22.0022V40.1764C22.0022 40.6607 22.1948 41.1252 22.5378 41.4677C22.8808 41.8102 23.3459 42.0026 23.831 42.0026H32.9749V43.8288C32.9749 44.3131 33.1676 44.7776 33.5106 45.1201C33.8535 45.4626 34.3187 45.655 34.8037 45.655C35.2887 45.655 35.7539 45.4626 36.0969 45.1201C36.4398 44.7776 36.6325 44.3131 36.6325 43.8288V40.1764H40.2901C40.7751 40.1764 41.2403 39.984 41.5833 39.6415C41.9262 39.299 42.1189 38.8345 42.1189 38.3502C42.1189 37.8659 41.9262 37.4014 41.5833 37.0589C41.2403 36.7164 40.7751 36.524 40.2901 36.524H36.6325V32.8716H40.2901C40.7751 32.8716 41.2403 32.6792 41.5833 32.3367C41.9262 31.9942 42.1189 31.5297 42.1189 31.0454C42.1189 30.5611 41.9262 30.0966 41.5833 29.7541C41.2403 29.4116 40.7751 29.2192 40.2901 29.2192H36.6325V25.5668C36.6325 25.0825 36.4398 24.618 36.0969 24.2755C35.7539 23.933 35.2887 23.7406 34.8037 23.7406C34.3187 23.7406 33.8535 23.933 33.5106 24.2755C33.1676 24.618 32.9749 25.0825 32.9749 25.5668V27.393H23.831C23.3459 27.393 22.8808 27.5854 22.5378 27.9279C22.1948 28.2704 22.0022 28.7349 22.0022 29.2192V32.8716H3.71423V14.6096H76.866V32.8716H58.578V29.2192C58.578 28.7349 58.3854 28.2704 58.0424 27.9279C57.6994 27.5854 57.2343 27.393 56.7492 27.393H45.7765C45.2915 27.393 44.8263 27.5854 44.4833 27.9279C44.1404 28.2704 43.9477 28.7349 43.9477 29.2192V40.1764C43.9477 40.6607 44.1404 41.1252 44.4833 41.4677C44.8263 41.8102 45.2915 42.0026 45.7765 42.0026H56.7492C57.2343 42.0026 57.6994 41.8102 58.0424 41.4677C58.3854 41.1252 58.578 40.6607 58.578 40.1764V36.524H76.866V54.786H3.71423Z" fill="#4388DD"/>
</svg>