<svg width="258" height="256" viewBox="0 0 258 256" fill="none" xmlns="http://www.w3.org/2000/svg">
<path d="M129.656 0.23966C58.9446 0.23966 1.65625 57.2884 1.65625 128C1.65625 198.712 58.9446 256 129.656 256C200.368 256 257.656 198.712 257.656 128C257.656 57.2884 200.368 0 129.656 0V0.23966ZM197.731 209.738L156.263 168.27C151.948 163.955 146.675 165.393 145.237 166.112C143.799 166.592 139.005 169.228 139.005 175.461V234.187H120.068V175.461C120.068 169.228 115.274 166.831 113.836 166.112C112.398 165.393 107.364 163.955 103.05 168.27L61.5813 209.738L48.1581 196.315L104.488 139.985C117.911 126.562 141.162 126.562 154.585 139.985L210.915 196.315L197.491 209.738H197.731ZM198.211 137.828C182.63 137.828 169.207 128.959 163.214 114.337C161.536 110.022 160.817 105.948 160.578 101.633C150.75 105.708 140.203 107.625 129.656 107.625C119.109 107.625 107.844 105.468 97.5364 101.154C97.2967 105.468 96.5776 109.783 94.66 114.097C88.6675 128.959 74.7649 138.067 58.9446 138.067H23.7087V119.131H58.9446C67.0945 119.131 74.0458 114.577 77.1619 106.906C80.278 99.2359 78.6001 91.0861 72.8473 85.3333L47.9184 60.4045L61.3416 46.9813L84.8323 70.4719C86.5102 72.1498 88.6675 73.588 90.3454 75.0262C95.6188 78.1423 101.851 78.6217 107.604 76.2247C113.596 73.8277 119.829 67.5955 119.829 58.0074V22.7716H138.765V58.0074C138.765 67.8352 144.997 73.8277 150.99 76.2247C156.982 78.6217 162.975 78.1423 168.248 75.2659C170.166 73.8277 172.083 72.3895 174.001 70.7116L197.491 47.221L210.915 60.6442L184.548 87.0113C179.035 92.5244 177.357 100.195 180.473 107.625C183.589 114.816 190.061 119.371 197.971 119.371H235.124V138.307H197.971L198.211 137.828Z" fill="url(#paint0_linear_7221_5144)"/>
<defs>
<linearGradient id="paint0_linear_7221_5144" x1="129.656" y1="256" x2="129.656" y2="0" gradientUnits="userSpaceOnUse">
<stop stop-color="#E968DD"/>
<stop offset="0.2" stop-color="#385CE5"/>
<stop offset="0.5"/>
</linearGradient>
</defs>
</svg>
