<svg width="184" height="37" viewBox="0 0 184 37" fill="none" xmlns="http://www.w3.org/2000/svg">
<path fill-rule="evenodd" clip-rule="evenodd" d="M28.3888 20.1995C28.7335 20.9499 29.7482 21.2149 30.3321 20.631L31.4015 19.5616C32.5075 18.4556 34.3008 18.4556 35.4068 19.5616C36.5128 20.6677 36.5128 22.4609 35.4068 23.567L26.7621 32.2117C24.684 34.6821 21.5698 36.252 18.0889 36.252C14.4625 36.252 11.2341 34.5481 9.1606 31.8973L0.831154 23.5678C-0.274883 22.4618 -0.274884 20.6686 0.831153 19.5625C1.93719 18.4565 3.73043 18.4565 4.83647 19.5625L5.89048 20.6165C6.4615 21.1876 7.45281 20.9307 7.79008 20.197C7.85672 20.052 7.89295 19.8964 7.89295 19.7369L7.89295 6.79775C7.89295 5.23358 9.16096 3.96557 10.7251 3.96557C12.2893 3.96557 13.5573 5.23358 13.5573 6.79775L13.5573 13.3436C13.5573 13.9067 14.1341 14.2889 14.671 14.1192C15.0108 14.0118 15.2562 13.7024 15.2562 13.3461L15.2562 2.83291C15.2562 1.26874 16.5242 0.000729962 18.0884 0.000729552C19.6526 0.000729142 20.9206 1.26874 20.9206 2.83291L20.9206 13.3458C20.9206 13.7022 21.1661 14.0115 21.5059 14.1189C22.0428 14.2885 22.6195 13.9064 22.6195 13.3433L22.6195 6.79775C22.6195 5.23358 23.8875 3.96557 25.4517 3.96557C27.0159 3.96557 28.2839 5.23358 28.2839 6.79775L28.2839 19.73C28.2839 19.8928 28.3209 20.0515 28.3888 20.1995Z" fill="#FD4848"/>
<path d="M27.1514 26.0569C27.1514 26.0569 23.0937 31.7213 18.0884 31.7213C13.083 31.7213 9.02539 26.0569 9.02539 26.0569C9.02539 26.0569 13.083 20.3926 18.0884 20.3926C23.0937 20.3926 27.1514 26.0569 27.1514 26.0569Z" fill="#D5FF5C"/>
<path d="M22.3357 26.0569C22.3357 28.4027 20.434 30.3044 18.0881 30.3044C15.7423 30.3044 13.8406 28.4027 13.8406 26.0569C13.8406 23.711 15.7423 21.8093 18.0881 21.8093C20.434 21.8093 22.3357 23.711 22.3357 26.0569Z" stroke="#FD4848" stroke-width="0.5679"/>
<path d="M20.6363 26.0568C20.6363 27.4641 19.4954 28.605 18.088 28.605C16.6807 28.605 15.5398 27.4641 15.5398 26.0568C15.5398 24.6494 16.6807 23.5086 18.088 23.5086C19.4954 23.5086 20.6363 24.6494 20.6363 26.0568Z" stroke="#FD4848" stroke-width="0.5679"/>
<path d="M24.0351 26.057C24.0351 29.3413 21.3726 32.0038 18.0882 32.0038C14.8039 32.0038 12.1414 29.3413 12.1414 26.057C12.1414 22.7726 14.8039 20.1101 18.0882 20.1101C21.3726 20.1101 24.0351 22.7726 24.0351 26.057Z" stroke="#FD4848" stroke-width="0.5679"/>
<path d="M25.7345 26.0571C25.7345 30.2799 22.3112 33.7032 18.0883 33.7032C13.8655 33.7032 10.4422 30.2799 10.4422 26.0571C10.4422 21.8342 13.8655 18.4109 18.0883 18.4109C22.3112 18.4109 25.7345 21.8342 25.7345 26.0571Z" stroke="#FD4848" stroke-width="0.5679"/>
<path d="M18.9369 26.0567C18.9369 26.5255 18.5568 26.9056 18.088 26.9056C17.6191 26.9056 17.239 26.5255 17.239 26.0567C17.239 25.5879 17.6191 25.2078 18.088 25.2078C18.5568 25.2078 18.9369 25.5879 18.9369 26.0567Z" fill="#162BEB" stroke="#FD4848" stroke-width="0.5679"/>
<ellipse cx="18.088" cy="26.0567" rx="1.13287" ry="1.13287" fill="#FD4848"/>
<path d="M9.43347 26.1258C9.41419 26.101 9.39643 26.0781 9.38021 26.0569C9.39643 26.0358 9.41419 26.0129 9.43347 25.9881C9.55161 25.8366 9.72665 25.619 9.95251 25.3575C10.4046 24.834 11.0584 24.1365 11.8654 23.4397C13.4883 22.0385 15.6885 20.6765 18.0884 20.6765C20.4882 20.6765 22.6884 22.0385 24.3113 23.4397C25.1183 24.1365 25.7722 24.834 26.2243 25.3575C26.4501 25.619 26.6251 25.8365 26.7433 25.9881C26.7626 26.0129 26.7803 26.0358 26.7966 26.0569C26.7803 26.0781 26.7626 26.101 26.7433 26.1258C26.6251 26.2773 26.4501 26.4949 26.2243 26.7564C25.7722 27.2798 25.1183 27.9774 24.3113 28.6742C22.6884 30.0754 20.4882 31.4374 18.0884 31.4374C15.6885 31.4374 13.4883 30.0754 11.8655 28.6742C11.0584 27.9774 10.4046 27.2798 9.95251 26.7564C9.72665 26.4949 9.55162 26.2773 9.43347 26.1258Z" stroke="#D5FF5C" stroke-width="0.5679"/>
<path d="M48.371 30.628H52.6988V11.0529H60.9217V7.32431H40.2812V11.0529H48.371V30.628Z" fill="white"/>
<path d="M58.3799 26.3668C58.3799 29.2964 60.5105 31.1274 63.7064 31.1274C66.403 31.1274 68.1008 29.5294 68.7999 27.1657H70.2314C70.298 29.7624 70.9306 30.628 73.6604 30.628H75.3916V27.4321H73.8269C72.9613 27.4321 72.8281 27.2656 72.8281 26.4333V19.7418C72.8281 15.7136 70.3313 13.5497 65.7705 13.5497C61.2762 13.5497 58.4797 15.9467 58.1468 18.4435L61.8421 19.4089C62.2749 17.7111 63.5067 16.6458 65.7705 16.6458C67.8678 16.6458 68.7999 17.5446 68.7999 19.2425V19.8084C65.6373 20.1081 63.1072 20.7406 61.2096 21.7393C59.312 22.7047 58.3799 24.2694 58.3799 26.3668ZM68.7999 23.8034C68.7999 26.6331 67.0688 28.0646 65.0048 28.0646C63.4068 28.0646 62.5079 27.2989 62.5079 25.9673C62.5079 23.8366 64.8383 22.9045 68.7999 22.4717V23.8034Z" fill="white"/>
<path d="M78.0397 30.628H82.1012V7.32431H78.0397V30.628Z" fill="white"/>
<path d="M86.9113 11.4191H91.2391V7.29102H86.9113V11.4191ZM87.0777 30.628H91.1059V14.0491H87.0777V30.628Z" fill="white"/>
<path d="M94.5534 26.3668C95.2858 29.2964 98.4151 31.0941 102.144 31.0941C106.705 31.0941 109.468 28.9967 109.468 25.7675C109.468 24.2361 108.902 23.0709 107.803 22.272C106.705 21.473 105.373 20.907 103.808 20.6074L101.644 20.2079C99.6469 19.8084 99.1143 19.3091 99.1143 18.3436C99.1143 17.245 100.08 16.4793 101.844 16.4793C103.742 16.4793 104.94 17.5779 105.473 19.0094L108.902 17.5446C108.136 15.5139 105.939 13.5497 101.977 13.5497C98.0156 13.5497 95.2525 15.6471 95.2525 18.7098C95.2525 21.8392 97.25 23.0044 100.612 23.7035L102.81 24.103C104.674 24.4692 105.273 25.135 105.273 26.167C105.273 27.3322 104.208 28.0646 102.31 28.0646C99.6802 28.0646 98.6149 26.5998 98.3153 25.135L94.5534 26.3668Z" fill="white"/>
<path d="M113.086 30.628H117.148V22.4384C117.148 20.5741 117.281 19.0427 118.313 17.8443C118.812 17.245 119.578 16.9454 120.61 16.9454C122.608 16.9454 123.606 18.1439 123.606 20.5075V30.628H127.601V22.4384C127.601 20.5408 127.701 19.0427 128.733 17.8443C129.232 17.245 130.031 16.9454 131.063 16.9454C132.961 16.9454 134.06 18.0773 134.06 20.5075V30.628H138.088V19.8084C138.088 15.7802 135.757 13.5497 132.562 13.5497C130.298 13.5497 128.467 15.1477 127.768 17.4448H126.336C125.77 14.9479 124.006 13.5497 121.775 13.5497C119.345 13.5497 117.914 15.181 117.281 17.4448H115.383C116.083 16.4793 116.682 15.0145 116.682 14.0491H113.086V30.628Z" fill="white"/>
<path d="M141.835 26.3668C141.835 29.2964 143.966 31.1274 147.161 31.1274C149.858 31.1274 151.556 29.5294 152.255 27.1657H153.687C153.753 29.7624 154.386 30.628 157.115 30.628H158.847V27.4321H157.282C156.416 27.4321 156.283 27.2656 156.283 26.4333V19.7418C156.283 15.7136 153.786 13.5497 149.226 13.5497C144.731 13.5497 141.935 15.9467 141.602 18.4435L145.297 19.4089C145.73 17.7111 146.962 16.6458 149.226 16.6458C151.323 16.6458 152.255 17.5446 152.255 19.2425V19.8084C149.092 20.1081 146.562 20.7406 144.665 21.7393C142.767 22.7047 141.835 24.2694 141.835 26.3668ZM152.255 23.8034C152.255 26.6331 150.524 28.0646 148.46 28.0646C146.862 28.0646 145.963 27.2989 145.963 25.9673C145.963 23.8366 148.293 22.9045 152.255 22.4717V23.8034Z" fill="white"/>
<path d="M161.495 30.628H165.556V23.0377C165.556 21.0402 165.689 19.3091 166.788 17.9774C167.354 17.2783 168.22 16.9454 169.352 16.9454C171.249 16.9454 172.348 18.1106 172.348 20.5075V30.628H176.409V19.7086C176.409 15.8801 174.445 13.5497 170.716 13.5497C167.987 13.5497 166.255 15.6471 165.523 17.8776H163.625C164.558 16.5126 165.223 15.0145 165.257 14.0491H161.495V30.628Z" fill="white"/>
</svg>
