<svg width="16" height="16" viewBox="0 0 16 16" fill="none" xmlns="http://www.w3.org/2000/svg">
<path d="M15.3678 9.14953C15.7113 8.85583 15.9359 8.44724 16 8C15.9359 7.55276 15.7113 7.14417 15.3678 6.85047C15.1576 6.65603 14.9914 6.41886 14.8801 6.15483C14.8416 5.86041 14.8662 5.56103 14.9521 5.27685C15.0989 4.86255 15.0913 4.40924 14.931 4.00006C14.6547 3.64941 14.2592 3.41237 13.8197 3.33413C13.5348 3.26851 13.2672 3.14268 13.035 2.96502C12.8573 2.73281 12.7315 2.46524 12.6659 2.18034C12.5876 1.74077 12.3506 1.34523 11.9999 1.06902C11.5908 0.908674 11.1374 0.901147 10.7231 1.04786C10.439 1.13378 10.1396 1.15835 9.84517 1.11987C9.58115 1.00866 9.34398 0.842352 9.14953 0.632158C8.85583 0.288745 8.44724 0.064063 8 0C7.55276 0.0640521 7.14417 0.288734 6.85047 0.632158C6.65603 0.842352 6.41886 1.00865 6.15483 1.11987C5.86041 1.15835 5.56103 1.13378 5.27685 1.04786C4.86255 0.901146 4.40924 0.908676 4.00006 1.06902C3.64941 1.34526 3.41237 1.74081 3.33413 2.18034C3.26851 2.46524 3.14268 2.7328 2.96502 2.96502C2.73281 3.14269 2.46524 3.26853 2.18034 3.33413C1.74077 3.41238 1.34523 3.64942 1.06902 4.00006C0.908673 4.40924 0.901147 4.86259 1.04786 5.27685C1.13378 5.56104 1.15835 5.86044 1.11987 6.15483C1.00866 6.41885 0.842351 6.65602 0.632158 6.85047C0.288745 7.14417 0.064063 7.55276 0 8C0.0640521 8.44724 0.288734 8.85583 0.632158 9.14953C0.842351 9.34397 1.00865 9.58114 1.11987 9.84517C1.15835 10.1396 1.13378 10.439 1.04786 10.7231C0.901146 11.1374 0.908676 11.5908 1.06902 11.9999C1.34526 12.3506 1.74081 12.5876 2.18034 12.6659C2.46524 12.7315 2.7328 12.8573 2.96502 13.035C3.14269 13.2672 3.26853 13.5348 3.33413 13.8197C3.41238 14.2592 3.64942 14.6548 4.00006 14.931C4.40924 15.0913 4.86259 15.0989 5.27685 14.9521C5.56104 14.8662 5.86044 14.8416 6.15483 14.8801C6.41885 14.9913 6.65602 15.1576 6.85047 15.3678C7.14417 15.7113 7.55276 15.9359 8 16C8.44724 15.9359 8.85583 15.7113 9.14953 15.3678C9.34397 15.1576 9.58114 14.9914 9.84517 14.8801C10.1396 14.8416 10.439 14.8662 10.7231 14.9521C11.1374 15.0989 11.5908 15.0913 11.9999 14.931C12.3506 14.6547 12.5876 14.2592 12.6659 13.8197C12.7315 13.5348 12.8573 13.2672 13.035 13.035C13.2672 12.8573 13.5348 12.7315 13.8197 12.6659C14.2592 12.5876 14.6548 12.3506 14.931 11.9999C15.0913 11.5908 15.0989 11.1374 14.9521 10.7231C14.8662 10.439 14.8416 10.1396 14.8801 9.84517C14.9913 9.58115 15.1576 9.34398 15.3678 9.14953ZM5.15776 11.2153C4.86945 10.8711 4.71579 10.434 4.72517 9.98519C4.66155 9.14524 4.83964 8.3394 5.04331 8.1146V8.11446C5.31258 7.89688 5.65783 7.79604 6.00196 7.83453C5.57715 8.30435 5.36809 8.93025 5.42507 9.56096C5.42507 10.3373 5.46753 10.9183 5.90012 11.3468C5.64533 11.3726 5.38827 11.327 5.15776 11.2152V11.2153ZM10.5617 9.02228C10.7827 9.05736 11.0088 9.04287 11.2235 8.97981C11.2456 9.03975 11.2586 9.10266 11.2616 9.16643C11.2804 9.33161 11.2495 9.49848 11.1725 9.64578C11.157 9.66225 11.1383 9.67532 11.1174 9.68398C11.1089 9.68824 11.0962 9.68824 11.0877 9.69677C10.919 9.75144 10.7385 9.75883 10.5659 9.71793C10.5114 9.70444 10.4537 9.71352 10.4058 9.74306C10.358 9.77246 10.3239 9.82004 10.3114 9.87486C10.2988 9.92997 10.3087 9.98792 10.339 10.0358C10.3692 10.0835 10.4173 10.1173 10.4726 10.1294C10.5866 10.1556 10.7034 10.1684 10.8204 10.1676C10.8755 10.1676 10.9349 10.1633 10.9985 10.1591H10.9987C11.0329 10.3619 10.9839 10.5698 10.8629 10.7359C10.8389 10.7618 10.8119 10.7847 10.7824 10.8038C10.6598 10.8679 10.5193 10.8888 10.3835 10.8632C10.2676 10.8481 10.1614 10.9297 10.1461 11.0456C10.131 11.1614 10.2125 11.2677 10.3284 11.2832C10.3888 11.2914 10.4497 11.2957 10.5108 11.2958C10.5619 11.2962 10.6131 11.292 10.6635 11.2832C10.6497 11.3998 10.6058 11.5108 10.5362 11.6056C10.4503 11.7074 10.3257 11.7687 10.1927 11.7751C9.06938 11.8621 7.93973 11.7442 6.85866 11.4273C6.77174 11.3955 6.68681 11.3587 6.60415 11.3171C6.59194 11.3154 6.58043 11.3111 6.57021 11.3043C5.88311 10.9608 5.84916 10.4857 5.84916 9.561C5.84916 8.53446 6.17155 8.20793 6.63384 7.84308C6.6763 7.81339 6.71862 7.77945 6.76109 7.74551C6.92598 7.62507 7.08448 7.49625 7.23614 7.35949L7.35488 7.2534C7.4158 7.20298 7.47389 7.14915 7.52886 7.09234C8.09724 6.53661 8.89468 5.298 8.89468 4.28426C8.89468 4.25884 8.89468 4.21211 8.97521 4.20374C9.11936 4.17832 9.41209 4.32247 9.5436 4.78063V4.78049C9.67497 5.251 9.596 5.75532 9.32729 6.16337C9.14664 6.42398 9.10389 6.75619 9.21282 7.05414C9.30756 7.28621 9.5027 7.46259 9.743 7.53349C9.86897 7.55792 9.99665 7.57354 10.1248 7.58007C10.4726 7.60975 11.1216 7.66486 11.2276 7.9151L11.2277 7.91525C11.2818 8.0148 11.3036 8.12871 11.2899 8.24133C11.2763 8.35382 11.2277 8.45934 11.1513 8.54299L11.147 8.54725C10.9813 8.61812 10.7979 8.6373 10.6211 8.60236C10.504 8.58602 10.3957 8.66769 10.3793 8.78471C10.3642 8.90061 10.4459 9.00684 10.5616 9.02232L10.5617 9.02228Z" fill="#FFCD29"/>
</svg>
