<svg width="139" height="32" viewBox="0 0 139 32" fill="none" xmlns="http://www.w3.org/2000/svg">
<path d="M60.4388 22.1042H57.5774V20.2149C56.9126 21.5644 55.5831 22.3141 53.9067 22.3141C51.2764 22.3141 49.5422 20.3348 49.5422 17.4559V9.89868H52.4037V16.8261C52.4037 18.5055 53.4153 19.6751 54.8605 19.6751C56.4791 19.6751 57.6063 18.3555 57.6063 16.5562V9.89868H60.4677V22.1341L60.4388 22.1042Z" fill="white"/>
<path d="M35.6099 16.4111H38.5869C38.7603 18.3004 39.9743 19.5299 41.9397 19.5299C43.7028 19.5299 44.9168 18.8102 44.9168 17.3107C44.9168 13.6821 36.1301 16.2011 36.1301 9.69356C36.1301 6.9046 38.4424 4.95532 41.7663 4.95532C45.0902 4.95532 47.5759 7.02456 47.6915 10.2034H44.7434C44.5988 8.73392 43.4716 7.7143 41.7374 7.7143C40.1188 7.7143 39.1072 8.49401 39.1072 9.69356C39.1072 13.4422 48.0094 10.6532 48.0094 17.2508C48.0094 20.3996 45.4948 22.3189 41.9108 22.3189C38.3268 22.3189 35.7544 19.9797 35.6099 16.4411V16.4111Z" fill="white"/>
<path d="M65.526 20.5795V22.109H62.6646V4.95532H65.526V11.3729C66.1908 10.3833 67.4625 9.69356 68.9944 9.69356C72.4917 9.69356 74.5439 12.2726 74.5439 15.9912C74.5439 19.7098 72.4628 22.2889 68.9366 22.2889C67.5203 22.2889 66.1908 21.6291 65.526 20.5795ZM71.7113 15.9912C71.7113 13.7421 70.4396 12.2426 68.532 12.2426C66.6243 12.2426 65.3526 13.7121 65.3526 15.9912C65.3526 18.2704 66.6243 19.7398 68.532 19.7398C70.4396 19.7398 71.7113 18.2704 71.7113 15.9912Z" fill="white"/>
<path d="M85.2661 22.2237V22.9735C85.2661 24.263 85.8152 24.6828 87.0292 24.6828H90.5554V27.052H86.8847C83.8787 27.052 82.5491 25.8824 82.5491 23.0934V22.1938C78.4737 21.564 75.6123 18.1153 75.6123 13.6169C75.6123 8.6088 79.1096 4.92017 83.8787 4.92017C88.6478 4.92017 92.1162 8.6088 92.1162 13.6169C92.1162 18.1153 89.2547 21.534 85.2372 22.1938L85.2661 22.2237ZM83.8498 19.5247C86.8558 19.5247 89.0235 17.0357 89.0235 13.6469C89.0235 10.2582 86.8558 7.73912 83.8498 7.73912C80.8438 7.73912 78.705 10.2582 78.705 13.6469C78.705 17.0357 80.8727 19.5247 83.8498 19.5247Z" fill="white"/>
<path d="M104.717 22.1042H101.856V20.2149C101.191 21.5644 99.8614 22.3141 98.185 22.3141C95.5548 22.3141 93.8206 20.3348 93.8206 17.4559V9.89868H96.682V16.8261C96.682 18.5055 97.6936 19.6751 99.1388 19.6751C100.757 19.6751 101.885 18.3555 101.885 16.5562V9.89868H104.746V22.1341L104.717 22.1042Z" fill="white"/>
<path d="M117.725 18.0551C117.291 20.6642 115.095 22.3135 112.175 22.3135C108.331 22.3135 106.163 19.1647 106.163 15.9559C106.163 12.7471 108.071 9.68823 111.944 9.68823C115.817 9.68823 117.667 12.6871 117.667 15.5661C117.667 15.9859 117.667 16.3458 117.609 16.5857H108.909C109.111 18.5649 110.325 19.8245 112.146 19.8245C113.62 19.8245 114.574 19.1947 114.892 18.0251H117.696L117.725 18.0551ZM108.996 14.6664H114.805C114.69 13.107 113.649 11.9374 111.944 11.9374C110.325 11.9374 109.314 12.8071 108.996 14.6664Z" fill="white"/>
<path d="M124.604 12.3873C122.783 12.3873 122.06 14.0067 122.06 16.3458V22.1037H119.199V9.89819H122.06V12.0574C122.638 10.498 123.563 9.89819 125.066 9.89819H126.453V12.3873H124.604Z" fill="white"/>
<path d="M135.646 9.89868V16.5562C135.646 18.3555 134.519 19.6751 132.9 19.6751C131.455 19.6751 130.443 18.5055 130.443 16.8261V9.89868H127.582V17.4559C127.582 20.3048 129.316 22.3141 131.946 22.3141C133.623 22.3141 134.952 21.5644 135.617 20.2149V22.9438C135.617 24.2334 135.068 24.6532 133.854 24.6532H129.027V27.0223H134.172C137.178 27.0223 138.507 25.8528 138.507 23.0638V9.89868H135.646Z" fill="white"/>
<path d="M21.2729 20.0046L19.1052 17.7554C18.1225 16.7358 16.8218 16.166 15.4055 16.166C14.0182 16.166 12.6886 16.7358 11.7059 17.7554L9.53814 20.0046L3.49731 26.2723L5.52056 28.3715L11.5903 22.0738C12.1973 21.4441 12.9198 21.684 13.1222 21.7739C13.3245 21.8639 13.9893 22.2238 13.9893 23.1234V32.0001H16.8507V23.1234C16.8507 22.2238 17.5155 21.8639 17.7178 21.7739C17.9201 21.684 18.6427 21.4441 19.2497 22.0738L25.3194 28.3715L27.3427 26.2723L21.3018 20.0046H21.2729Z" fill="white"/>
<path d="M25.4061 14.5146C24.2789 14.5146 23.3251 13.8549 22.8915 12.7753C22.458 11.6957 22.6892 10.5261 23.4696 9.71639L27.3138 5.72787L25.2905 3.62865L21.8799 7.16734C21.6198 7.43724 21.3308 7.64716 21.0417 7.88707C20.2902 8.33691 19.4231 8.39688 18.5849 8.03702C17.4866 7.5572 16.8218 6.53757 16.8218 5.30803V0H13.9604V5.30803C13.9604 6.53757 13.2956 7.5572 12.1973 8.03702C11.3591 8.39688 10.492 8.33691 9.76937 7.91706C9.48034 7.67715 9.1624 7.46723 8.90227 7.16734L5.49166 3.62865L3.46842 5.72787L7.08135 9.47648C7.91955 10.3462 8.15078 11.5457 7.68832 12.6853C7.22587 13.8249 6.24315 14.5146 5.05811 14.5146H0V17.4835H5.11591C7.45709 17.4835 9.48034 16.074 10.3763 13.8549C10.6365 13.2251 10.7521 12.5953 10.781 11.9656C12.2551 12.5953 13.8448 12.9252 15.4055 12.9252C16.9663 12.9252 18.4404 12.6253 19.8567 12.0255C19.8856 12.6553 20.0012 13.2851 20.2613 13.9148C21.1284 16.104 23.0939 17.4835 25.4061 17.4835H30.84V14.5146H25.4061Z" fill="white"/>
</svg>
