<svg width="24" height="24" viewBox="0 0 24 24" fill="none" xmlns="http://www.w3.org/2000/svg">
<path d="M17.2426 9.28026C17.6924 8.77273 17.9418 8.11868 17.9441 7.44055V4.05673H18.3853C18.7363 4.05673 19.073 3.91728 19.3212 3.66907C19.5694 3.42086 19.7088 3.08422 19.7088 2.7332C19.7088 2.38218 19.5694 2.04553 19.3212 1.79732C19.073 1.54911 18.7363 1.40967 18.3853 1.40967H6.61912C6.2681 1.40967 5.93145 1.54911 5.68324 1.79732C5.43503 2.04553 5.29559 2.38218 5.29559 2.7332C5.29559 3.08422 5.43503 3.42086 5.68324 3.66907C5.93145 3.91728 6.2681 4.05673 6.61912 4.05673H7.06029V7.44055C7.06018 8.11833 7.30813 8.77273 7.75735 9.28026C6.55829 10.259 5.69142 11.5848 5.27565 13.0757C4.85988 14.5667 4.91557 16.1497 5.4351 17.6077C5.95462 19.0657 6.91252 20.3273 8.1774 21.2194C9.44228 22.1115 10.9522 22.5904 12.5 22.5904C14.0478 22.5904 15.5577 22.1115 16.8226 21.2194C18.0875 20.3273 19.0454 19.0657 19.5649 17.6077C20.0844 16.1497 20.1401 14.5667 19.7243 13.0757C19.3086 11.5848 18.4417 10.259 17.2426 9.28026ZM6.61912 3.17437C6.50211 3.17437 6.3899 3.12789 6.30716 3.04516C6.22442 2.96242 6.17794 2.8502 6.17794 2.7332C6.17794 2.61619 6.22442 2.50398 6.30716 2.42124C6.3899 2.3385 6.50211 2.29202 6.61912 2.29202H18.3853C18.5023 2.29202 18.6145 2.3385 18.6973 2.42124C18.78 2.50398 18.8265 2.61619 18.8265 2.7332C18.8265 2.8502 18.78 2.96242 18.6973 3.04516C18.6145 3.12789 18.5023 3.17437 18.3853 3.17437H6.61912ZM17.0618 4.05673V7.44055C17.0603 7.93645 16.8638 8.41186 16.5147 8.76408C15.9514 8.40493 15.3432 8.12161 14.7059 7.92143V4.05673H17.0618ZM13.8235 4.05673V7.70967C13.3868 7.63017 12.9439 7.58883 12.5 7.58614C12.0561 7.58925 11.6133 7.63058 11.1765 7.70967V4.05673H13.8235ZM10.2941 4.05673V7.91702C9.65786 8.11645 9.05104 8.39982 8.48971 8.75967C8.14063 8.40744 7.94413 7.93203 7.94265 7.43614V4.05673H10.2941ZM12.5 21.7038C11.1912 21.7038 9.9117 21.3157 8.82343 20.5885C7.73517 19.8614 6.88697 18.8278 6.38609 17.6186C5.88522 16.4094 5.75417 15.0788 6.00951 13.7951C6.26485 12.5114 6.89512 11.3322 7.82062 10.4068C8.74611 9.48126 9.92526 8.85099 11.209 8.59565C12.4927 8.3403 13.8232 8.47136 15.0325 8.97223C16.2417 9.4731 17.2752 10.3213 18.0024 11.4096C18.7295 12.4978 19.1176 13.7773 19.1176 15.0861C19.1176 16.8412 18.4204 18.5245 17.1794 19.7655C15.9383 21.0066 14.2551 21.7038 12.5 21.7038Z" fill="#4388DD"/>
<path d="M12.5 9.35084C11.3657 9.35084 10.2568 9.68721 9.31364 10.3174C8.37048 10.9476 7.63537 11.8433 7.20128 12.8913C6.76719 13.9393 6.65361 15.0925 6.87491 16.205C7.09621 17.3176 7.64244 18.3395 8.44454 19.1416C9.24663 19.9437 10.2686 20.4899 11.3811 20.7112C12.4936 20.9325 13.6468 20.819 14.6948 20.3849C15.7428 19.9508 16.6385 19.2157 17.2687 18.2725C17.8989 17.3293 18.2353 16.2205 18.2353 15.0861C18.2353 13.565 17.631 12.1062 16.5555 11.0307C15.4799 9.9551 14.0211 9.35084 12.5 9.35084ZM12.5 19.9391C11.5402 19.9391 10.6019 19.6545 9.80385 19.1212C9.00579 18.588 8.38377 17.83 8.01647 16.9433C7.64916 16.0565 7.55306 15.0808 7.74031 14.1394C7.92756 13.198 8.38976 12.3333 9.06845 11.6546C9.74715 10.9759 10.6119 10.5137 11.5532 10.3264C12.4946 10.1392 13.4704 10.2353 14.3571 10.6026C15.2439 10.9699 16.0018 11.5919 16.5351 12.39C17.0683 13.1881 17.3529 14.1263 17.3529 15.0861C17.3529 15.7234 17.2274 16.3545 16.9835 16.9433C16.7396 17.5321 16.3822 18.067 15.9315 18.5177C15.4809 18.9683 14.9459 19.3258 14.3571 19.5697C13.7684 19.8136 13.1373 19.9391 12.5 19.9391Z" fill="#4388DD"/>
<path d="M13.6338 11.5567H11.8691C11.7953 11.5568 11.7227 11.5755 11.6579 11.6109C11.5932 11.6464 11.5384 11.6975 11.4985 11.7597L10.175 13.82C10.1323 13.8866 10.1082 13.9634 10.1054 14.0425C10.1026 14.1216 10.1211 14.2 10.159 14.2695C10.1969 14.3389 10.2528 14.3969 10.3208 14.4374C10.3888 14.4778 10.4665 14.4992 10.5456 14.4994H11.4279V18.1744C11.4279 18.2914 11.4744 18.4036 11.5572 18.4863C11.6399 18.5691 11.7521 18.6155 11.8691 18.6155H13.6338C13.7508 18.6155 13.863 18.5691 13.9458 18.4863C14.0285 18.4036 14.075 18.2914 14.075 18.1744V11.9979C14.075 11.8809 14.0285 11.7687 13.9458 11.6859C13.863 11.6032 13.7508 11.5567 13.6338 11.5567ZM13.1926 17.7332H12.3103V14.0582C12.3103 13.9412 12.2638 13.829 12.1811 13.7462C12.0983 13.6635 11.9861 13.617 11.8691 13.617H11.3529L12.1118 12.4391H13.1926V17.7332Z" fill="#4388DD"/>
</svg>
