<svg width="56" height="56" viewBox="0 0 56 56" fill="none" xmlns="http://www.w3.org/2000/svg">
<title>Credited to: https://thenounproject.com/icon/vote-4074597/</title>
<path d="M10.6427 48.3C10.2449 48.3 9.92236 47.9774 9.92236 47.5796V36.5344C9.92236 36.1366 10.2449 35.814 10.6427 35.814C11.0405 35.814 11.3631 36.1366 11.3631 36.5344V47.5796C11.3631 47.7707 11.2872 47.954 11.1521 48.089C11.017 48.2241 10.8337 48.3 10.6427 48.3Z" fill="white"/>
<path d="M25.2732 30.6532C25.097 30.6535 24.9269 30.5889 24.7954 30.4719L21.6606 27.6937L21.6609 27.694C21.3795 27.4448 21.3367 27.0213 21.5631 26.7216L28.6759 17.2723C28.7907 17.1199 28.9614 17.0189 29.1509 16.9925C29.3399 16.9659 29.5319 17.0154 29.6847 17.1302C30.0024 17.3698 30.0658 17.8213 29.8265 18.139L23.1141 27.0565L25.7504 29.3934H25.7507C25.9742 29.5922 26.0521 29.9083 25.9459 30.1877C25.8398 30.4675 25.5719 30.6524 25.2729 30.6527L25.2732 30.6532Z" fill="white"/>
<path d="M34.8105 20.7331L36.3043 21.7622C36.4616 21.8721 36.5686 22.0406 36.6011 22.2297C36.6339 22.4192 36.5896 22.6137 36.478 22.77L31.0825 30.3513C30.9731 30.5105 30.8043 30.6189 30.6142 30.6527C30.4242 30.6861 30.2283 30.642 30.0711 30.5298C29.9138 30.4179 29.808 30.2475 29.7775 30.0568C29.7472 29.8661 29.7945 29.6712 29.9093 29.5155L34.8836 22.526L33.9851 21.9137L34.8105 20.7331Z" fill="white"/>
<path d="M30.2081 24.5836C29.7727 24.5884 29.3491 24.4417 29.0102 24.1684C28.6793 23.8664 28.479 23.4474 28.4519 23.0001C28.4246 22.5531 28.5725 22.1129 28.8645 21.773C29.3479 21.2131 30.3088 20.2998 30.8899 19.7582L28.8337 18.2931H28.8333C28.5169 18.0596 28.4462 17.6158 28.6742 17.2955C28.9022 16.9753 29.345 16.8971 29.6691 17.1196L32.4402 19.0945C32.6129 19.2173 32.7226 19.4099 32.7402 19.6212C32.7579 19.8322 32.6814 20.0406 32.5319 20.1904L32.3617 20.3609C32.3203 20.4004 30.6039 21.9633 29.9544 22.7152V22.7149C29.8666 22.83 29.8746 22.9911 29.9734 23.0969C30.1023 23.1541 30.2496 23.1532 30.3779 23.0947C31.2938 22.3688 33.4471 20.6767 33.4471 20.6767V20.677C33.5001 20.6349 33.5587 20.6008 33.6214 20.5757L35.9638 19.6261L38.2296 18.2522C38.3049 18.2066 38.3878 18.1754 38.4747 18.1593L41.4711 17.6161C41.8628 17.5451 42.2378 17.8049 42.3089 18.1966C42.3799 18.5883 42.1201 18.9633 41.7287 19.0343L38.8628 19.5534L36.6616 20.8883C36.6285 20.9076 36.5941 20.9249 36.5587 20.9394L34.2571 21.873C33.859 22.1852 32.0816 23.5825 31.2725 24.2241H31.2722C30.969 24.4614 30.5933 24.5881 30.2081 24.5836L30.2081 24.5836Z" fill="white"/>
<path d="M24.8716 24.2409C24.8514 24.2409 24.8301 24.2403 24.8089 24.238L24.8092 24.2383C24.6189 24.2219 24.443 24.1306 24.3198 23.9843C24.197 23.8383 24.1371 23.6492 24.1535 23.4588L24.3468 21.2138H24.3471C24.4105 20.4832 24.5906 19.767 24.88 19.093L25.1791 18.3987C25.6685 17.2635 26.4561 16.2817 27.4578 15.5575L29.5664 14.0328C30.017 13.709 30.5331 13.4867 31.0782 13.3822L32.1719 13.1748C32.5931 13.0947 33.0208 13.0545 33.4495 13.0545H37.662L40.1459 12.5866C40.3353 12.5464 40.5331 12.5844 40.6945 12.6918C40.8556 12.7995 40.9669 12.9674 41.0029 13.1578C41.0386 13.3482 40.9965 13.545 40.8855 13.7038C40.7746 13.8627 40.6041 13.9701 40.4131 14.0019L37.8629 14.4824C37.8189 14.4907 37.7742 14.4952 37.7295 14.4952H33.4489C33.1106 14.4949 32.7729 14.5267 32.4404 14.5901L31.3464 14.7975H31.3467C31.0087 14.8625 30.6891 15.0001 30.4096 15.2011L28.3019 16.7251C27.5108 17.2969 26.8889 18.0722 26.5024 18.9685L26.2039 19.6628H26.2043C25.9746 20.1953 25.8322 20.761 25.782 21.3385L25.5887 23.5828C25.5563 23.9549 25.2453 24.2405 24.8716 24.2408L24.8716 24.2409Z" fill="white"/>
<path d="M41.6155 18.9788C41.2826 18.9781 40.9935 18.7501 40.9154 18.4266L39.5316 12.6716C39.4448 12.3082 39.6499 11.9384 40.0043 11.8203L41.9708 11.1649V11.1646C42.3442 11.0518 42.7394 11.2563 42.8629 11.6261C42.9861 11.9959 42.7928 12.3969 42.4268 12.5307L41.0871 12.9774L42.1599 17.4387L43.2723 17.2566H43.272C43.4633 17.219 43.6614 17.2605 43.8216 17.3718C43.9817 17.483 44.0898 17.6544 44.1213 17.8464C44.1528 18.0387 44.1052 18.2359 43.9891 18.3925C43.8733 18.5488 43.6987 18.6517 43.5054 18.6774L41.7326 18.9687H41.7329C41.694 18.9755 41.6547 18.9787 41.6155 18.9787L41.6155 18.9788Z" fill="white"/>
<path d="M44.0639 19.1697C43.7204 19.17 43.4246 18.9275 43.3577 18.5905L41.8257 10.9272C41.7617 10.6085 41.9189 10.2863 42.2097 10.1409L48.3397 7.07618C48.6953 6.89835 49.1282 7.04242 49.306 7.39841C49.4842 7.7544 49.3398 8.18693 48.9841 8.36508L43.3458 11.1837L44.6106 17.5079L48.4338 16.2329C48.8072 16.1194 49.2034 16.3236 49.3269 16.694C49.4504 17.0642 49.2565 17.4655 48.8896 17.599L44.2919 19.1316V19.1319C44.2185 19.1567 44.1414 19.1696 44.0639 19.1696L44.0639 19.1697Z" fill="white"/>
<path d="M28.6513 28.3538C28.5738 28.3538 28.497 28.3412 28.4233 28.3165L26.2623 27.5961C25.8957 27.4627 25.7018 27.0613 25.8253 26.6909C25.9487 26.3207 26.3446 26.1162 26.7183 26.2297L28.105 26.6918L28.6655 23.8896V23.8899C28.7469 23.5033 29.1244 23.2548 29.5116 23.3323C29.8988 23.4098 30.1515 23.7847 30.0779 24.1726L29.3575 27.7743C29.2907 28.111 28.9951 28.3535 28.6517 28.3535L28.6513 28.3538Z" fill="white"/>
<path d="M32.9732 32.9326H22.8883C22.4905 32.9326 22.168 32.6101 22.168 32.2123C22.168 31.8145 22.4905 31.4919 22.8883 31.4919H32.9732C33.3709 31.4919 33.6935 31.8145 33.6935 32.2123C33.6935 32.6101 33.3709 32.9326 32.9732 32.9326Z" fill="white"/>
<path d="M44.4988 37.2548H10.6426C10.386 37.2545 10.149 37.1181 10.02 36.8962C9.89106 36.6744 9.88977 36.401 10.0165 36.1778L15.5683 26.4355C15.8304 26.0004 16.2999 25.7328 16.8077 25.7293H19.2868C19.6846 25.7293 20.0071 26.0518 20.0071 26.4496C20.0071 26.8474 19.6846 27.17 19.2868 27.17H16.8077L11.882 35.8141H43.3344L39.0159 27.1502L37.2951 27.1698C36.8973 27.1698 36.5747 26.8473 36.5747 26.4495C36.5747 26.0517 36.8973 25.7291 37.2951 25.7291H39.0256C39.2857 25.7291 39.5411 25.7996 39.7646 25.9327C39.9877 26.0661 40.1707 26.2578 40.2939 26.4868L45.1427 36.2127H45.143C45.2546 36.4359 45.2427 36.7012 45.1112 36.9134C44.98 37.1256 44.7481 37.2549 44.4986 37.2546L44.4988 37.2548Z" fill="white"/>
<path d="M44.4987 48.3C44.1009 48.3 43.7783 47.9774 43.7783 47.5796V36.5344C43.7783 36.1366 44.1009 35.814 44.4987 35.814C44.8965 35.814 45.219 36.1366 45.219 36.5344V47.5796C45.219 47.7707 45.1431 47.954 45.0081 48.089C44.873 48.2241 44.6897 48.3 44.4987 48.3Z" fill="white"/>
<path d="M16.0446 18.8867C15.8536 18.887 15.6703 18.8108 15.5353 18.6758L13.7344 16.8749C13.5993 16.7398 13.5234 16.5565 13.5234 16.3655C13.5234 16.1745 13.5993 15.9912 13.7344 15.8561L15.5353 14.0553C15.6703 13.9202 15.8536 13.8443 16.0446 13.8443C16.2357 13.8443 16.419 13.9202 16.554 14.0553L18.3549 15.8561C18.49 15.9912 18.5659 16.1745 18.5659 16.3655C18.5659 16.5565 18.49 16.7398 18.3549 16.8749L16.554 18.6758C16.419 18.8108 16.2357 18.887 16.0446 18.8867ZM15.2626 16.3655L16.0446 17.1476L16.8267 16.3655L16.0446 15.5834L15.2626 16.3655Z" fill="white"/>
<path d="M9.20192 20.6871C9.20192 21.0849 8.87937 21.4075 8.48158 21.4075C8.08378 21.4075 7.76123 21.0849 7.76123 20.6871C7.76123 20.2893 8.08378 19.9668 8.48158 19.9668C8.87937 19.9668 9.20192 20.2893 9.20192 20.6871Z" fill="white"/>
<path d="M22.1677 12.0429C22.1677 12.4407 21.8452 12.7633 21.4474 12.7633C21.0496 12.7633 20.7271 12.4407 20.7271 12.0429C20.7271 11.6451 21.0496 11.3226 21.4474 11.3226C21.8452 11.3226 22.1677 11.6451 22.1677 12.0429Z" fill="white"/>
<path d="M7.76109 29.3308C7.18804 29.3308 6.6381 29.1031 6.23297 28.6979C5.82785 28.2927 5.6001 27.7428 5.6001 27.1698C5.6001 26.5968 5.82778 26.0468 6.23297 25.6417C6.63817 25.2365 7.18811 25.0088 7.76109 25.0088C8.33408 25.0088 8.88409 25.2365 9.28921 25.6417C9.69434 26.0469 9.92209 26.5968 9.92209 27.1698C9.92144 27.7428 9.69345 28.2921 9.28857 28.6973C8.88337 29.1022 8.33409 29.3302 7.76103 29.3308L7.76109 29.3308ZM7.76109 26.4494C7.46974 26.4494 7.207 26.625 7.09574 26.8941C6.98415 27.1633 7.04557 27.473 7.25171 27.6791C7.45784 27.8853 7.76752 27.9467 8.03669 27.8351C8.30586 27.7238 8.48144 27.4611 8.48144 27.1697C8.48112 26.7719 8.15889 26.4497 7.76109 26.4494Z" fill="white"/>
</svg>
